<svg version="1.1" id="Layer_1" xmlns="http://www.w3.org/2000/svg" xmlns:xlink="http://www.w3.org/1999/xlink" x="0px" y="0px"
	 width="100%" viewBox="0 0 1920 1080" enable-background="new 0 0 1920 1080" xml:space="preserve">
<path fill="#FFFFFF" opacity="1.000000" stroke="none" 
	d="
M1612.000000,1.000000 
	C1659.687622,1.000000 1707.375122,1.000000 1755.551758,1.351887 
	C1765.551147,13.824431 1774.898193,26.077665 1784.612183,38.032993 
	C1797.445435,53.827374 1810.961060,69.080215 1823.473511,85.119614 
	C1843.754272,111.116577 1860.226196,139.228088 1866.430664,172.161743 
	C1868.412354,182.680725 1869.408447,193.469208 1869.809937,204.173599 
	C1870.092529,211.709000 1868.608643,219.310654 1867.605225,227.050629 
	C1851.730225,233.943115 1836.061157,240.442200 1820.627808,247.459854 
	C1807.007324,253.653076 1793.333618,259.853882 1780.263428,267.097870 
	C1766.555908,274.695099 1755.536743,285.397614 1748.955688,300.070251 
	C1740.859375,318.120758 1741.551270,336.707916 1745.746094,355.400909 
	C1753.654053,390.641266 1771.067505,421.424255 1791.063599,451.399231 
	C1792.934082,464.750732 1794.256226,477.763000 1796.852173,490.516022 
	C1802.218750,516.881104 1811.529907,541.876709 1825.097412,565.185852 
	C1837.000488,585.635437 1851.957275,603.402771 1871.385010,617.165833 
	C1886.377075,627.786438 1903.034912,634.453003 1921.000000,638.000000 
	C1921.000000,662.354248 1921.000000,686.708435 1920.637939,711.565247 
	C1902.426392,720.104797 1887.677124,731.992371 1875.764038,747.523376 
	C1867.093750,758.826782 1861.011841,771.285400 1856.375366,784.787292 
	C1849.708984,804.201294 1849.247314,823.972595 1852.603027,843.633972 
	C1857.210205,870.628418 1870.584351,893.485596 1891.277710,911.345154 
	C1900.196289,919.042480 1911.034058,924.516174 1921.000000,931.000000 
	C1921.000000,956.020874 1921.000000,981.041809 1920.649902,1006.501465 
	C1918.884155,1006.087341 1917.414429,1005.311829 1916.060669,1004.369690 
	C1898.346558,992.041077 1880.788208,979.481934 1862.883545,967.437317 
	C1854.945435,962.097412 1846.315674,957.785583 1837.826904,952.743347 
	C1836.419678,951.662903 1835.185547,950.846130 1833.634521,949.884949 
	C1824.791870,945.622864 1816.370728,941.269043 1807.720825,937.431152 
	C1780.291992,925.261108 1751.477417,918.849548 1721.521851,918.171143 
	C1711.304321,917.939819 1701.050049,919.323792 1690.812744,919.972351 
	C1674.849609,920.983765 1659.379883,924.556152 1644.251587,929.503662 
	C1615.509888,938.903442 1592.381104,957.490845 1568.774292,975.484131 
	C1554.343018,986.483765 1539.176147,996.673828 1523.579346,1005.948914 
	C1504.531250,1017.276245 1483.609009,1024.584473 1462.238159,1030.353149 
	C1437.286377,1037.088501 1411.984863,1041.912354 1385.623291,1043.043213 
	C1382.102051,1043.022583 1379.043701,1043.022583 1375.562988,1043.023926 
	C1368.596558,1043.028442 1362.020752,1043.446167 1355.515503,1042.946289 
	C1343.087402,1041.991333 1330.674316,1040.716553 1318.303833,1039.180786 
	C1310.157715,1038.169434 1302.097046,1036.469482 1293.769775,1034.784302 
	C1290.356079,1033.666504 1287.170654,1032.842285 1283.600342,1031.975342 
	C1277.316406,1030.292847 1271.416016,1028.658936 1265.518921,1027.012207 
	C1233.841797,1018.166504 1202.640747,1006.935913 1169.456665,1005.091003 
	C1152.780396,1004.163757 1135.874878,1003.831665 1119.307983,1005.526489 
	C1104.799805,1007.010620 1090.499268,1011.257629 1076.322510,1015.083069 
	C1053.620117,1021.208923 1032.566040,1031.338867 1012.310608,1043.162476 
	C993.418274,1054.190552 975.700012,1066.879639 959.000000,1081.000000 
	C916.979126,1081.000000 874.958191,1081.000000 832.338013,1080.700928 
	C830.151062,1078.622192 828.563354,1076.842529 826.983398,1074.663818 
	C827.137695,1069.948853 824.688782,1068.691040 820.513611,1069.015991 
	C815.630676,1064.228882 810.993286,1059.802612 805.140442,1056.423584 
	C796.541748,1051.459229 788.782043,1045.053345 780.242432,1039.971680 
	C769.560181,1033.615234 758.678101,1027.494385 747.446777,1022.194946 
	C739.472534,1018.432434 730.869812,1015.888428 722.383057,1013.351257 
	C708.473694,1009.192932 694.560730,1004.881226 680.394043,1001.812500 
	C672.136902,1000.023865 663.378967,1000.030334 654.853821,1000.103271 
	C636.924011,1000.256592 618.858643,998.508850 601.161621,1003.057312 
	C594.330994,1004.812866 587.358704,1006.139526 580.687378,1008.368958 
	C562.305054,1014.512024 545.616760,1024.009766 529.652710,1034.896484 
	C512.465149,1046.617554 494.623596,1057.099365 473.956787,1061.487793 
	C470.045074,1062.318481 465.257050,1060.793579 461.992065,1062.498291 
	C456.618683,1065.303711 451.136780,1064.224243 445.845642,1065.290527 
	C433.358582,1067.807007 421.038116,1065.416016 409.230652,1063.375000 
	C394.694122,1060.862061 379.951935,1056.231323 366.840271,1049.509033 
	C343.392059,1037.487061 321.052307,1023.291199 298.333496,1009.861511 
	C274.209198,995.600830 249.967285,981.636780 222.911621,973.434570 
	C220.338852,972.654663 218.092148,970.846497 215.609421,969.698792 
	C214.618866,969.240845 213.403809,969.237122 212.281952,969.100708 
	C209.575729,968.771484 206.756958,968.854248 204.178009,968.103149 
	C199.401855,966.712219 194.787735,964.773254 190.051575,963.230042 
	C189.022583,962.894775 187.763718,963.298645 186.610474,963.303894 
	C184.518448,963.313354 182.383850,963.541748 180.342224,963.212524 
	C174.718628,962.305542 169.391174,959.915955 163.390060,960.821167 
	C161.193771,961.152344 158.716125,959.571777 156.357468,958.895996 
	C155.446945,958.635132 154.430710,958.116760 153.598190,958.307434 
	C145.439484,960.176453 137.272797,958.623535 129.111679,958.521301 
	C117.043678,958.370178 104.963821,957.924011 92.910530,958.297668 
	C85.518608,958.526794 78.160980,960.009033 70.798424,961.005859 
	C57.542557,962.800537 44.245388,964.360596 31.059145,966.576172 
	C20.964645,968.272400 11.014414,970.827209 1.000001,973.000000 
	C1.000000,962.312439 1.000000,951.624878 1.314546,940.344604 
	C5.925295,936.122742 10.503330,932.776062 14.470425,928.817200 
	C34.889683,908.440796 48.792179,884.358459 54.968498,856.041260 
	C57.784225,843.131775 61.335930,830.333374 58.076984,816.835022 
	C54.561687,802.274780 35.985538,784.900696 20.831141,783.083069 
	C14.271813,782.296387 7.613404,782.335815 1.000000,782.000000 
	C1.000000,761.312439 1.000000,740.624878 1.322331,719.340820 
	C5.911430,716.177002 10.270839,713.750061 14.422846,711.008972 
	C20.345766,707.098877 26.116659,702.958435 32.143532,699.166748 
	C32.887581,698.605652 33.440582,697.794189 34.135674,696.692993 
	C35.486107,695.587769 36.694450,694.772339 38.282818,693.967651 
	C44.680565,692.062805 49.025169,688.581360 49.995735,681.577698 
	C51.342369,679.809204 52.652924,678.371277 54.118568,677.165649 
	C54.684212,677.409119 55.094772,677.420288 55.505329,677.431519 
	C55.308952,676.938965 55.112576,676.446472 54.967274,675.612549 
	C56.662529,673.175110 58.306705,671.079102 60.303635,668.937805 
	C61.098324,667.913452 61.540264,666.934326 62.118813,665.639404 
	C64.153770,662.209778 66.052124,659.096069 68.308609,655.952209 
	C71.505966,653.995728 73.551346,651.740540 72.004807,647.615356 
	C83.191032,623.046875 88.009521,597.473572 87.898491,570.982361 
	C87.852066,559.904480 87.597160,548.681946 85.818024,537.789673 
	C82.892403,519.878540 79.823257,501.837128 74.713951,484.468597 
	C64.327080,449.159576 47.896065,416.547363 25.830116,387.018005 
	C18.226381,376.842438 9.314371,367.644531 0.999998,358.000000 
	C1.000000,326.312439 1.000000,294.624878 1.468599,262.476837 
	C12.042413,261.683411 22.181206,261.756500 32.245129,260.924194 
	C48.146458,259.609222 64.037079,257.993103 79.860809,255.951004 
	C104.488220,252.772736 128.541718,246.876831 152.181625,239.329178 
	C176.327652,231.619934 199.669113,221.987183 221.781479,209.522629 
	C244.545532,196.690674 265.839691,181.839325 284.286285,163.196930 
	C293.291504,154.096130 302.321198,144.995087 310.864807,135.468170 
	C321.713165,123.371216 332.199463,110.942253 342.622955,98.473427 
	C355.895782,82.596153 370.515625,68.122169 386.708038,55.250515 
	C388.186188,54.075512 390.212860,53.590519 392.148132,53.096184 
	C395.396118,55.603607 398.509613,57.760757 401.560547,60.002983 
	C415.622955,70.337936 430.249664,79.978600 446.812469,85.533432 
	C463.603729,91.164871 480.854889,95.545792 498.106903,99.617203 
	C504.179199,101.050240 510.868744,100.282410 517.244202,99.932274 
	C531.935608,99.125450 546.633362,98.228828 561.274719,96.811813 
	C567.579651,96.201622 573.750916,94.210709 580.362000,92.901794 
	C601.267456,101.510315 622.873718,105.441856 644.872742,106.883713 
	C663.239929,108.087540 681.662048,106.843651 699.803162,103.786469 
	C722.166138,100.017807 744.065735,94.286827 765.274414,86.036392 
	C793.058777,75.227921 819.449036,61.822830 842.972900,43.416348 
	C855.746643,33.421463 867.659302,22.326191 880.077637,12.066427 
	C884.807434,18.446945 888.846497,25.055326 894.147217,30.416172 
	C906.694153,43.105671 921.532043,52.814613 937.298645,61.092045 
	C954.995056,70.382561 973.680054,77.122879 992.801147,82.820518 
	C1025.634155,92.603920 1059.099121,95.356575 1093.081787,91.974113 
	C1114.924927,89.799965 1134.818237,81.653969 1153.684937,70.813515 
	C1171.361450,60.656765 1188.674316,49.824207 1206.675415,40.285965 
	C1227.674194,29.159214 1250.742188,25.047066 1274.250977,24.175901 
	C1285.117798,23.773211 1296.089355,24.917919 1306.952881,25.980692 
	C1328.282227,28.067329 1348.693115,34.191769 1367.531860,44.063744 
	C1389.818359,55.742592 1411.368652,68.851501 1433.026123,81.697876 
	C1450.438477,92.026199 1467.833984,101.935524 1487.885986,106.763649 
	C1496.706787,108.887489 1505.191772,107.171951 1513.739624,107.367287 
	C1519.413452,107.496941 1525.257935,103.098907 1530.914673,100.486465 
	C1549.721069,91.801262 1564.380981,78.031166 1577.292847,62.199692 
	C1592.322144,43.771847 1603.715210,23.262526 1612.000000,1.000000 
M1001.003723,889.022339 
	C1001.003723,889.022339 1000.959351,889.054810 1000.918274,888.350342 
	C1000.118469,886.267273 999.036194,885.081970 996.159241,886.966675 
	C990.450073,886.486633 984.438843,884.624023 979.089844,885.792603 
	C964.534668,888.972229 956.828369,899.565308 951.279114,912.943420 
	C943.408020,931.918823 956.468994,959.992126 983.387939,962.737976 
	C998.278137,964.256836 1011.476013,958.694153 1019.615906,945.381897 
	C1027.459717,932.553955 1025.149170,919.384094 1017.583923,907.282349 
	C1013.882874,901.362000 1008.555481,896.458313 1003.892151,890.378540 
	C1002.913757,889.932556 1001.935303,889.486572 1001.003723,889.022339 
M372.020660,987.768860 
	C372.383698,989.774048 372.746735,991.779236 373.037842,994.603394 
	C373.154602,997.497192 373.333435,1000.351990 377.593079,1001.358215 
	C387.777374,1014.004578 400.828430,1019.380432 417.034149,1017.280029 
	C418.827332,1017.047607 421.182648,1018.096191 422.690643,1019.290955 
	C427.253723,1022.906433 432.477783,1024.689331 438.005585,1023.869446 
	C455.598480,1021.260254 464.927429,1008.912170 459.793060,990.619507 
	C459.337585,988.996765 459.327942,987.012390 459.803345,985.400085 
	C467.583679,959.013550 456.486694,934.877197 430.961426,925.132874 
	C407.401276,916.138672 385.849304,925.457214 375.826141,948.804871 
	C370.771545,960.578979 370.806854,972.683533 370.573364,985.312256 
	C371.035217,985.874390 371.497101,986.436462 372.020660,987.768860 
M1774.082764,92.416832 
	C1761.575317,82.067268 1746.488281,77.220161 1731.233276,73.233459 
	C1710.919067,67.924637 1690.117798,65.676414 1669.116577,67.128242 
	C1662.261475,67.602142 1655.262085,68.902969 1648.771973,71.122147 
	C1636.149536,75.438225 1630.784912,87.064598 1636.710938,96.874092 
	C1647.359497,114.501503 1659.573364,130.853363 1675.621094,144.184723 
	C1697.358398,162.242661 1722.656982,170.804138 1750.248169,174.159134 
	C1754.113525,174.629135 1756.966187,173.676437 1760.427124,172.464600 
	C1775.934448,167.034637 1784.739136,156.019287 1789.237793,140.670380 
	C1794.529785,122.614540 1788.997681,103.892525 1774.082764,92.416832 
M113.594002,310.764709 
	C103.351608,314.206848 99.377518,330.450989 103.235229,339.820251 
	C104.996597,344.098145 108.780655,347.140045 113.713882,346.858887 
	C118.426186,346.590302 123.319794,346.008881 127.709877,344.404938 
	C134.184402,342.039429 138.165924,336.961823 138.973816,329.903503 
	C139.863724,322.128845 138.373001,315.318939 130.635544,311.376678 
	C125.332657,308.674835 119.858696,308.865601 113.594002,310.764709 
M962.994873,1024.960938 
	C960.998840,1021.651062 959.673767,1017.538757 956.870239,1015.194519 
	C950.590576,1009.943665 939.986145,1010.803833 934.405823,1016.132141 
	C927.927551,1022.317749 926.562195,1031.828735 931.753662,1039.175903 
	C933.507385,1041.657715 936.590576,1044.121582 939.460510,1044.728394 
	C950.072876,1046.971924 965.535095,1039.517334 962.994873,1024.960938 
M1697.562866,844.172485 
	C1693.595215,846.459229 1688.150269,846.088135 1684.905762,850.418213 
	C1685.820923,851.035278 1686.105713,851.389343 1686.358276,851.367615 
	C1687.167480,851.297974 1687.987793,851.164185 1688.763062,850.923462 
	C1708.200073,844.888794 1725.016724,834.807129 1738.360229,819.189087 
	C1754.029785,800.848145 1763.077393,780.173218 1762.061279,755.578430 
	C1761.422729,740.125549 1755.508667,726.915527 1745.746826,715.328613 
	C1733.465820,700.751343 1717.312134,692.105957 1699.437134,686.442383 
	C1696.019775,685.359558 1692.275757,685.308044 1688.682373,684.780762 
	C1688.523804,685.371033 1688.365234,685.961365 1688.206665,686.551697 
	C1689.217529,687.040283 1690.187378,687.658142 1691.246460,687.995422 
	C1696.449707,689.652405 1701.752319,691.026245 1706.881348,692.882507 
	C1722.534546,698.547546 1735.850708,707.794373 1745.872803,721.030762 
	C1756.965698,735.681641 1761.098755,752.350769 1758.095581,770.754944 
	C1755.287964,787.959961 1747.860962,802.871887 1736.551758,815.888184 
	C1725.947510,828.092957 1713.080444,837.357666 1697.562866,844.172485 
M495.221283,982.520203 
	C498.697601,982.384705 502.447174,983.022400 505.580139,981.915283 
	C509.380402,980.572266 512.089905,977.308960 511.970673,972.751770 
	C511.850037,968.139771 508.932800,965.102905 504.936798,964.169678 
	C501.112335,963.276428 496.236145,962.516479 493.073700,964.138245 
	C487.762604,966.862000 489.107269,978.284241 495.221283,982.520203 
M356.984802,194.250763 
	C356.121490,190.515137 355.258179,186.779510 354.244659,182.394058 
	C351.050446,186.656342 351.629333,193.893326 354.757385,195.992798 
	C355.119629,196.235901 356.222534,195.375412 356.984802,194.250763 
M364.554291,203.123749 
	C363.683136,203.013611 362.775330,202.727448 361.962433,202.896851 
	C361.707001,202.950104 361.405304,204.349777 361.638885,204.924072 
	C363.050812,208.395630 369.935669,210.581146 374.267395,208.525665 
	C370.961548,206.753601 368.017792,205.175644 364.554291,203.123749 
M374.144836,158.049866 
	C373.290894,158.926941 372.436951,159.804016 371.583008,160.681091 
	C372.725861,160.957123 373.856903,161.386108 375.014191,161.475677 
	C377.084839,161.635910 379.182648,161.740417 381.247406,161.583084 
	C382.741150,161.469269 384.199768,160.894470 385.674072,160.525253 
	C385.594696,159.875351 385.515350,159.225449 385.435974,158.575546 
	C381.953400,158.391006 378.470825,158.206482 374.144836,158.049866 
M404.220459,189.645462 
	C404.374756,187.514145 404.529053,185.382812 404.683350,183.251495 
	C404.010925,183.170273 403.338501,183.089050 402.666077,183.007828 
	C402.083740,185.287415 401.348419,187.541504 400.963196,189.853912 
	C400.597656,192.048141 400.598724,194.303421 400.438599,196.531860 
	C401.647339,194.504501 402.856110,192.477127 404.220459,189.645462 
M385.827942,210.140488 
	C389.470886,208.955246 392.932098,207.522110 394.736389,203.621948 
	C390.625519,204.579498 386.805878,206.097351 383.062927,207.785309 
	C382.667145,207.963791 382.432312,209.659973 382.618652,209.764023 
	C383.355988,210.175735 384.290680,210.233902 385.827942,210.140488 
M354.272491,174.208084 
	C355.146851,174.289124 356.517670,174.765396 356.817352,174.388931 
	C359.293579,171.278458 361.571381,168.010010 363.909271,164.789413 
	C358.701477,165.765228 355.731049,168.930908 354.272491,174.208084 
M398.531830,173.040894 
	C399.392914,173.597290 400.253967,174.153702 401.115051,174.710098 
	C401.305420,173.678238 402.021973,172.268799 401.597900,171.677856 
	C399.396027,168.609497 396.903259,165.749863 394.511810,162.817535 
	C393.922607,163.244095 393.333405,163.670654 392.744202,164.097229 
	C394.549500,166.862640 396.354797,169.628052 398.531830,173.040894 
z"/>
<path fill="#FFB3BA" opacity="1.000000" stroke="none" 
	d="
M1.000000,236.000000 
	C1.000000,157.700684 1.000000,79.401360 1.000000,1.000000 
	C249.024887,1.000000 497.049805,1.000000 745.436279,1.322184 
	C734.511658,12.116489 723.825439,23.341980 711.816223,32.906204 
	C685.637756,53.755001 656.267517,69.219971 624.781250,80.443657 
	C612.953979,84.659630 600.645020,87.524170 588.200684,91.040466 
	C585.780701,90.486954 583.536011,90.236763 581.679749,89.253494 
	C569.801453,82.961601 557.720886,76.981117 546.254517,69.998795 
	C528.698730,59.308365 512.953552,45.710384 493.870453,37.442528 
	C474.911621,29.228525 455.285339,27.166971 434.951630,30.526546 
	C417.567749,33.398746 402.111176,40.798019 387.154358,49.909790 
	C382.406219,46.792664 378.005219,43.792164 373.448486,41.050438 
	C359.327667,32.554096 344.262238,26.421509 327.717987,25.181480 
	C303.115509,23.337469 280.182587,28.994604 259.288025,42.247910 
	C236.481400,56.714050 219.350830,77.182541 201.641678,97.045387 
	C184.192444,116.616707 167.291306,136.748993 148.817383,155.309052 
	C136.474869,167.709106 122.423126,178.680405 108.035362,188.712128 
	C82.666740,206.400146 54.604824,219.086456 25.333239,228.983871 
	C17.344702,231.685013 9.117614,233.680618 1.000000,236.000000 
z"/>
<path fill="#BAFFC9" opacity="1.000000" stroke="none" 
	d="
M1.000001,973.468628 
	C11.014414,970.827209 20.964645,968.272400 31.059145,966.576172 
	C44.245388,964.360596 57.542557,962.800537 70.798424,961.005859 
	C78.160980,960.009033 85.518608,958.526794 92.910530,958.297668 
	C104.963821,957.924011 117.043678,958.370178 129.111679,958.521301 
	C137.272797,958.623535 145.439484,960.176453 153.598190,958.307434 
	C154.430710,958.116760 155.446945,958.635132 156.357468,958.895996 
	C158.716125,959.571777 161.193771,961.152344 163.390060,960.821167 
	C169.391174,959.915955 174.718628,962.305542 180.342224,963.212524 
	C182.383850,963.541748 184.518448,963.313354 186.610474,963.303894 
	C187.763718,963.298645 189.022583,962.894775 190.051575,963.230042 
	C194.787735,964.773254 199.401855,966.712219 204.178009,968.103149 
	C206.756958,968.854248 209.575729,968.771484 212.281952,969.100708 
	C213.403809,969.237122 214.618866,969.240845 215.609421,969.698792 
	C218.092148,970.846497 220.338852,972.654663 222.911621,973.434570 
	C249.967285,981.636780 274.209198,995.600830 298.333496,1009.861511 
	C321.052307,1023.291199 343.392059,1037.487061 366.840271,1049.509033 
	C379.951935,1056.231323 394.694122,1060.862061 409.230652,1063.375000 
	C421.038116,1065.416016 433.358582,1067.807007 445.845642,1065.290527 
	C451.136780,1064.224243 456.618683,1065.303711 461.992065,1062.498291 
	C465.257050,1060.793579 470.045074,1062.318481 473.956787,1061.487793 
	C494.623596,1057.099365 512.465149,1046.617554 529.652710,1034.896484 
	C545.616760,1024.009766 562.305054,1014.512024 580.687378,1008.368958 
	C587.358704,1006.139526 594.330994,1004.812866 601.161621,1003.057312 
	C618.858643,998.508850 636.924011,1000.256592 654.853821,1000.103271 
	C663.378967,1000.030334 672.136902,1000.023865 680.394043,1001.812500 
	C694.560730,1004.881226 708.473694,1009.192932 722.383057,1013.351257 
	C730.869812,1015.888428 739.472534,1018.432434 747.446777,1022.194946 
	C758.678101,1027.494385 769.560181,1033.615234 780.242432,1039.971680 
	C788.782043,1045.053345 796.541748,1051.459229 805.140442,1056.423584 
	C810.993286,1059.802612 815.630676,1064.228882 820.680420,1069.303833 
	C823.120239,1071.444946 825.047974,1073.253784 826.975647,1075.062744 
	C828.563354,1076.842529 830.151062,1078.622192 831.869385,1080.700928 
	C555.000000,1081.000000 278.000000,1081.000000 1.000000,1081.000000 
	C1.000000,1045.237549 1.000000,1009.587402 1.000001,973.468628 
z"/>
<path fill="#FFDFBA" opacity="1.000000" stroke="none" 
	d="
M1611.531372,1.000000 
	C1603.715210,23.262526 1592.322144,43.771847 1577.292847,62.199692 
	C1564.380981,78.031166 1549.721069,91.801262 1530.914673,100.486465 
	C1525.257935,103.098907 1519.413452,107.496941 1513.739624,107.367287 
	C1505.191772,107.171951 1496.706787,108.887489 1487.885986,106.763649 
	C1467.833984,101.935524 1450.438477,92.026199 1433.026123,81.697876 
	C1411.368652,68.851501 1389.818359,55.742592 1367.531860,44.063744 
	C1348.693115,34.191769 1328.282227,28.067329 1306.952881,25.980692 
	C1296.089355,24.917919 1285.117798,23.773211 1274.250977,24.175901 
	C1250.742188,25.047066 1227.674194,29.159214 1206.675415,40.285965 
	C1188.674316,49.824207 1171.361450,60.656765 1153.684937,70.813515 
	C1134.818237,81.653969 1114.924927,89.799965 1093.081787,91.974113 
	C1059.099121,95.356575 1025.634155,92.603920 992.801147,82.820518 
	C973.680054,77.122879 954.995056,70.382561 937.298645,61.092045 
	C921.532043,52.814613 906.694153,43.105671 894.147217,30.416172 
	C888.846497,25.055326 884.807434,18.446945 880.023254,11.766851 
	C879.213684,10.354634 878.575806,9.581179 877.949097,8.437705 
	C877.306824,5.711793 876.653381,3.355899 876.000000,1.000002 
	C1121.020874,1.000000 1366.041870,1.000000 1611.531372,1.000000 
z"/>
<path fill="#FFFFBA" opacity="1.000000" stroke="none" 
	d="
M1858.000000,0.999998 
	C1878.985596,1.000000 1899.971191,1.000000 1921.000000,1.000000 
	C1921.000000,191.354782 1921.000000,381.709564 1920.640869,572.528564 
	C1919.098877,572.400635 1917.853638,571.906860 1916.742676,571.201660 
	C1894.765503,557.252869 1874.864136,540.638611 1856.313354,522.515991 
	C1844.084106,510.569000 1832.408936,497.941589 1821.529419,484.757568 
	C1810.351196,471.211700 1800.441528,456.619019 1789.999268,441.972931 
	C1791.005127,424.414795 1791.223389,407.280731 1793.157837,390.342651 
	C1795.810425,367.114594 1803.745239,345.429108 1816.589233,325.810059 
	C1826.317871,310.949646 1836.887817,296.640503 1846.634155,281.791168 
	C1856.658569,266.518158 1863.759033,249.922928 1867.203857,231.561584 
	C1877.462036,226.322418 1886.654419,220.254303 1894.543091,212.116440 
	C1909.956177,196.216431 1913.037598,173.046356 1900.709473,154.487762 
	C1892.283569,141.803467 1882.492554,130.025818 1873.308228,117.845528 
	C1852.384399,90.096161 1844.058594,59.395847 1851.782227,25.034306 
	C1853.595947,16.964684 1855.914062,9.008426 1858.000000,0.999998 
z"/>
<path fill="#BAE1FF" opacity="1.000000" stroke="none" 
	d="
M1293.998169,1035.077759 
	C1302.097046,1036.469482 1310.157715,1038.169434 1318.303833,1039.180786 
	C1330.674316,1040.716553 1343.087402,1041.991333 1355.515503,1042.946289 
	C1362.020752,1043.446167 1368.596558,1043.028442 1375.645508,1043.385254 
	C1376.637695,1044.137695 1377.067017,1044.739014 1377.620605,1044.892700 
	C1400.142944,1051.146851 1422.667358,1057.393433 1445.211060,1063.570068 
	C1467.629761,1069.712646 1490.482544,1073.715698 1513.655273,1074.845459 
	C1542.901489,1076.271118 1571.990601,1074.258179 1600.725098,1068.030151 
	C1625.605469,1062.637451 1649.937378,1055.696045 1673.124146,1044.976929 
	C1700.979980,1032.099365 1724.950439,1013.421692 1748.804932,994.594666 
	C1767.082031,980.169678 1786.670898,968.163147 1808.908813,960.975464 
	C1818.465942,957.886414 1828.294678,955.637634 1838.000000,953.007080 
	C1846.315674,957.785583 1854.945435,962.097412 1862.883545,967.437317 
	C1880.788208,979.481934 1898.346558,992.041077 1916.060669,1004.369690 
	C1917.414429,1005.311829 1918.884155,1006.087341 1920.649902,1006.970154 
	C1921.000000,1031.653687 1921.000000,1056.307251 1921.000000,1081.000000 
	C1669.645752,1081.000000 1418.291504,1081.000000 1166.666382,1080.725586 
	C1182.764404,1072.040283 1198.810791,1062.906860 1215.590332,1055.415771 
	C1233.449585,1047.442749 1252.211792,1041.765503 1271.688477,1038.848999 
	C1279.146118,1037.732422 1286.562866,1036.342896 1293.998169,1035.077759 
z"/>
<path fill="#FFFFFF" opacity="1.000000" stroke="none" 
	d="
M1.000000,236.468628 
	C9.117614,233.680618 17.344702,231.685013 25.333239,228.983871 
	C54.604824,219.086456 82.666740,206.400146 108.035362,188.712128 
	C122.423126,178.680405 136.474869,167.709106 148.817383,155.309052 
	C167.291306,136.748993 184.192444,116.616707 201.641678,97.045387 
	C219.350830,77.182541 236.481400,56.714050 259.288025,42.247910 
	C280.182587,28.994604 303.115509,23.337469 327.717987,25.181480 
	C344.262238,26.421509 359.327667,32.554096 373.448486,41.050438 
	C378.005219,43.792164 382.406219,46.792664 386.940521,50.196121 
	C377.214386,59.474792 366.639008,67.509140 357.797577,77.136002 
	C337.766174,98.946930 318.684723,121.627228 299.040680,143.797806 
	C274.372223,171.639023 245.288925,193.828796 212.309326,210.999268 
	C166.771286,234.708145 117.985535,247.957611 67.443451,254.669846 
	C45.491123,257.585205 23.159403,257.643860 1.000000,259.000000 
	C1.000000,251.645752 1.000000,244.291504 1.000000,236.468628 
z"/>
<path fill="#FFFFBA" opacity="1.000000" stroke="none" 
	d="
M31.952469,698.916382 
	C26.116659,702.958435 20.345766,707.098877 14.422846,711.008972 
	C10.270839,713.750061 5.911430,716.177002 1.322331,718.872131 
	C1.000000,598.979126 1.000000,478.958221 0.999998,358.468658 
	C9.314371,367.644531 18.226381,376.842438 25.830116,387.018005 
	C47.896065,416.547363 64.327080,449.159576 74.713951,484.468597 
	C79.823257,501.837128 82.892403,519.878540 85.818024,537.789673 
	C87.597160,548.681946 87.852066,559.904480 87.898491,570.982361 
	C88.009521,597.473572 83.191032,623.046875 71.732712,647.817566 
	C70.259148,650.915588 69.104813,653.448914 67.950470,655.982300 
	C66.052124,659.096069 64.153770,662.209778 61.835148,665.788940 
	C60.926872,667.163940 60.438869,668.073486 59.950874,668.983032 
	C58.306705,671.079102 56.662529,673.175110 54.760582,675.723633 
	C54.246742,676.374207 54.066971,676.626587 53.963486,676.933350 
	C52.652924,678.371277 51.342369,679.809204 49.702248,681.739380 
	C45.549381,686.140015 41.726086,690.048462 37.902794,693.956970 
	C36.694450,694.772339 35.486107,695.587769 33.871002,696.810181 
	C32.960308,697.783508 32.456379,698.349976 31.952469,698.916382 
z"/>
<path fill="#BAE1FF" opacity="1.000000" stroke="none" 
	d="
M959.468628,1081.000000 
	C975.700012,1066.879639 993.418274,1054.190552 1012.310608,1043.162476 
	C1032.566040,1031.338867 1053.620117,1021.208923 1076.322510,1015.083069 
	C1090.499268,1011.257629 1104.799805,1007.010620 1119.307983,1005.526489 
	C1135.874878,1003.831665 1152.780396,1004.163757 1169.456665,1005.091003 
	C1202.640747,1006.935913 1233.841797,1018.166504 1265.518921,1027.012207 
	C1271.416016,1028.658936 1277.316406,1030.292847 1283.527710,1032.359619 
	C1282.843018,1033.189941 1281.879150,1033.782715 1280.843018,1033.965088 
	C1275.476562,1034.909668 1270.063599,1035.605957 1264.718018,1036.650757 
	C1244.604370,1040.581787 1225.049561,1046.600220 1206.640503,1055.470337 
	C1190.695190,1063.153320 1175.517212,1072.428589 1160.000000,1081.000000 
	C1093.312500,1081.000000 1026.624878,1081.000000 959.468628,1081.000000 
z"/>
<path fill="#FFFFFF" opacity="1.000000" stroke="none" 
	d="
M875.531372,1.000002 
	C876.653381,3.355899 877.306824,5.711793 877.677246,8.641358 
	C853.360291,34.704121 825.164062,54.575451 793.882935,70.012154 
	C757.094849,88.166405 718.358154,100.021088 677.255310,102.725266 
	C662.618347,103.688240 647.774109,103.910881 633.194885,102.590042 
	C621.155518,101.499313 609.336060,97.766060 597.489075,94.913399 
	C594.377930,94.164253 591.526428,92.336983 588.555664,91.004829 
	C600.645020,87.524170 612.953979,84.659630 624.781250,80.443657 
	C656.267517,69.219971 685.637756,53.755001 711.816223,32.906204 
	C723.825439,23.341980 734.511658,12.116489 745.898926,1.322184 
	C789.020874,1.000000 832.041809,1.000000 875.531372,1.000002 
z"/>
<path fill="#FFB3BA" opacity="1.000000" stroke="none" 
	d="
M1921.000000,930.531372 
	C1911.034058,924.516174 1900.196289,919.042480 1891.277710,911.345154 
	C1870.584351,893.485596 1857.210205,870.628418 1852.603027,843.633972 
	C1849.247314,823.972595 1849.708984,804.201294 1856.375366,784.787292 
	C1861.011841,771.285400 1867.093750,758.826782 1875.764038,747.523376 
	C1887.677124,731.992371 1902.426392,720.104797 1920.637939,712.033936 
	C1921.000000,784.687561 1921.000000,857.375122 1921.000000,930.531372 
z"/>
<path fill="#FFFFBA" opacity="1.000000" stroke="none" 
	d="
M1867.913452,226.882721 
	C1868.608643,219.310654 1870.092529,211.709000 1869.809937,204.173599 
	C1869.408447,193.469208 1868.412354,182.680725 1866.430664,172.161743 
	C1860.226196,139.228088 1843.754272,111.116577 1823.473511,85.119614 
	C1810.961060,69.080215 1797.445435,53.827374 1784.612183,38.032993 
	C1774.898193,26.077665 1765.551147,13.824431 1756.020386,1.351887 
	C1788.687622,1.000000 1821.375122,1.000000 1854.405029,1.345325 
	C1852.105225,12.443851 1848.647217,23.072676 1846.984985,33.975307 
	C1843.129639,59.263111 1847.166870,83.545616 1861.077759,105.178993 
	C1870.647217,120.060699 1881.898926,133.874741 1892.616699,148.000473 
	C1906.464966,166.251862 1908.901855,184.725220 1898.837158,201.206314 
	C1891.506226,213.210556 1880.472900,221.033112 1867.913452,226.882721 
z"/>
<path fill="#FFFFBA" opacity="1.000000" stroke="none" 
	d="
M1921.000000,637.531372 
	C1903.034912,634.453003 1886.377075,627.786438 1871.385010,617.165833 
	C1851.957275,603.402771 1837.000488,585.635437 1825.097412,565.185852 
	C1811.529907,541.876709 1802.218750,516.881104 1796.852173,490.516022 
	C1794.256226,477.763000 1792.934082,464.750732 1791.316895,451.613647 
	C1807.867188,475.371887 1826.291260,497.714020 1846.955933,517.920166 
	C1863.420410,534.019104 1881.426147,548.584656 1899.217896,563.260742 
	C1905.786621,568.679260 1913.699951,572.467957 1921.000000,577.000000 
	C1921.000000,597.020874 1921.000000,617.041809 1921.000000,637.531372 
z"/>
<path fill="#FFB3BA" opacity="1.000000" stroke="none" 
	d="
M1.000000,782.468628 
	C7.613404,782.335815 14.271813,782.296387 20.831141,783.083069 
	C35.985538,784.900696 54.561687,802.274780 58.076984,816.835022 
	C61.335930,830.333374 57.784225,843.131775 54.968498,856.041260 
	C48.792179,884.358459 34.889683,908.440796 14.470425,928.817200 
	C10.503330,932.776062 5.925295,936.122742 1.314546,939.875916 
	C1.000000,887.645752 1.000000,835.291565 1.000000,782.468628 
z"/>
<path fill="#EB8D98" opacity="1.000000" stroke="none" 
	d="
M588.200684,91.040466 
	C591.526428,92.336983 594.377930,94.164253 597.489075,94.913399 
	C609.336060,97.766060 621.155518,101.499313 633.194885,102.590042 
	C647.774109,103.910881 662.618347,103.688240 677.255310,102.725266 
	C718.358154,100.021088 757.094849,88.166405 793.882935,70.012154 
	C825.164062,54.575451 853.360291,34.704121 877.666138,9.011376 
	C878.575806,9.581179 879.213684,10.354634 879.906006,11.427666 
	C867.659302,22.326191 855.746643,33.421463 842.972900,43.416348 
	C819.449036,61.822830 793.058777,75.227921 765.274414,86.036392 
	C744.065735,94.286827 722.166138,100.017807 699.803162,103.786469 
	C681.662048,106.843651 663.239929,108.087540 644.872742,106.883713 
	C622.873718,105.441856 601.267456,101.510315 580.145447,92.646675 
	C574.486023,89.853081 569.153198,87.796753 564.406860,84.808708 
	C547.418640,74.113815 530.606140,63.138737 513.770569,52.202858 
	C493.725800,39.182396 472.378906,31.210613 447.872955,32.807236 
	C434.068848,33.706600 420.920563,36.509224 408.536011,42.368740 
	C402.685760,45.136673 397.481659,49.270267 391.984802,52.785091 
	C390.212860,53.590519 388.186188,54.075512 386.708038,55.250515 
	C370.515625,68.122169 355.895782,82.596153 342.622955,98.473427 
	C332.199463,110.942253 321.713165,123.371216 310.864807,135.468170 
	C302.321198,144.995087 293.291504,154.096130 284.286285,163.196930 
	C265.839691,181.839325 244.545532,196.690674 221.781479,209.522629 
	C199.669113,221.987183 176.327652,231.619934 152.181625,239.329178 
	C128.541718,246.876831 104.488220,252.772736 79.860809,255.951004 
	C64.037079,257.993103 48.146458,259.609222 32.245129,260.924194 
	C22.181206,261.756500 12.042413,261.683411 1.468599,262.008179 
	C1.000000,261.250000 1.000000,260.500000 1.000000,259.375000 
	C23.159403,257.643860 45.491123,257.585205 67.443451,254.669846 
	C117.985535,247.957611 166.771286,234.708145 212.309326,210.999268 
	C245.288925,193.828796 274.372223,171.639023 299.040680,143.797806 
	C318.684723,121.627228 337.766174,98.946930 357.797577,77.136002 
	C366.639008,67.509140 377.214386,59.474792 387.216370,50.431129 
	C402.111176,40.798019 417.567749,33.398746 434.951630,30.526546 
	C455.285339,27.166971 474.911621,29.228525 493.870453,37.442528 
	C512.953552,45.710384 528.698730,59.308365 546.254517,69.998795 
	C557.720886,76.981117 569.801453,82.961601 581.679749,89.253494 
	C583.536011,90.236763 585.780701,90.486954 588.200684,91.040466 
z"/>
<path fill="#E4E071" opacity="1.000000" stroke="none" 
	d="
M1921.000000,576.600037 
	C1913.699951,572.467957 1905.786621,568.679260 1899.217896,563.260742 
	C1881.426147,548.584656 1863.420410,534.019104 1846.955933,517.920166 
	C1826.291260,497.714020 1807.867188,475.371887 1791.345093,451.157074 
	C1771.067505,421.424255 1753.654053,390.641266 1745.746094,355.400909 
	C1741.551270,336.707916 1740.859375,318.120758 1748.955688,300.070251 
	C1755.536743,285.397614 1766.555908,274.695099 1780.263428,267.097870 
	C1793.333618,259.853882 1807.007324,253.653076 1820.627808,247.459854 
	C1836.061157,240.442200 1851.730225,233.943115 1867.605225,227.050629 
	C1880.472900,221.033112 1891.506226,213.210556 1898.837158,201.206314 
	C1908.901855,184.725220 1906.464966,166.251862 1892.616699,148.000473 
	C1881.898926,133.874741 1870.647217,120.060699 1861.077759,105.178993 
	C1847.166870,83.545616 1843.129639,59.263111 1846.984985,33.975307 
	C1848.647217,23.072676 1852.105225,12.443851 1854.873779,1.345325 
	C1855.750000,1.000000 1856.500000,1.000000 1857.625000,0.999998 
	C1855.914062,9.008426 1853.595947,16.964684 1851.782227,25.034306 
	C1844.058594,59.395847 1852.384399,90.096161 1873.308228,117.845528 
	C1882.492554,130.025818 1892.283569,141.803467 1900.709473,154.487762 
	C1913.037598,173.046356 1909.956177,196.216431 1894.543091,212.116440 
	C1886.654419,220.254303 1877.462036,226.322418 1866.843994,231.632492 
	C1854.176392,237.102905 1842.124390,242.333588 1829.993042,247.373322 
	C1810.940796,255.288162 1791.694458,262.743927 1774.748291,274.927826 
	C1753.017944,290.551544 1743.847534,312.104248 1746.256836,338.147644 
	C1748.056030,357.598633 1753.777222,376.419342 1762.591919,393.865173 
	C1770.971558,410.449860 1780.790649,426.307251 1789.976807,442.484406 
	C1800.441528,456.619019 1810.351196,471.211700 1821.529419,484.757568 
	C1832.408936,497.941589 1844.084106,510.569000 1856.313354,522.515991 
	C1874.864136,540.638611 1894.765503,557.252869 1916.742676,571.201660 
	C1917.853638,571.906860 1919.098877,572.400635 1920.640869,572.996460 
	C1921.000000,574.066711 1921.000000,575.133362 1921.000000,576.600037 
z"/>
<path fill="#D8F6FF" opacity="1.000000" stroke="none" 
	d="
M1160.428467,1081.000000 
	C1175.517212,1072.428589 1190.695190,1063.153320 1206.640503,1055.470337 
	C1225.049561,1046.600220 1244.604370,1040.581787 1264.718018,1036.650757 
	C1270.063599,1035.605957 1275.476562,1034.909668 1280.843018,1033.965088 
	C1281.879150,1033.782715 1282.843018,1033.189941 1283.912720,1032.402344 
	C1287.170654,1032.842285 1290.356079,1033.666504 1293.769775,1034.784302 
	C1286.562866,1036.342896 1279.146118,1037.732422 1271.688477,1038.848999 
	C1252.211792,1041.765503 1233.449585,1047.442749 1215.590332,1055.415771 
	C1198.810791,1062.906860 1182.764404,1072.040283 1166.197754,1080.725586 
	C1164.285645,1081.000000 1162.571289,1081.000000 1160.428467,1081.000000 
z"/>
<path fill="#BAE1FF" opacity="1.000000" stroke="none" 
	d="
M1386.086182,1043.063843 
	C1411.984863,1041.912354 1437.286377,1037.088501 1462.238159,1030.353149 
	C1483.609009,1024.584473 1504.531250,1017.276245 1523.579346,1005.948914 
	C1539.176147,996.673828 1554.343018,986.483765 1568.774292,975.484131 
	C1592.381104,957.490845 1615.509888,938.903442 1644.251587,929.503662 
	C1659.379883,924.556152 1674.849609,920.983765 1690.812744,919.972351 
	C1701.050049,919.323792 1711.304321,917.939819 1721.521851,918.171143 
	C1751.477417,918.849548 1780.291992,925.261108 1807.720825,937.431152 
	C1816.370728,941.269043 1824.791870,945.622864 1833.408691,950.167969 
	C1831.917358,951.075806 1830.359131,951.666138 1828.749023,952.020264 
	C1808.165894,956.547363 1788.343628,963.260315 1770.865234,975.210388 
	C1754.870483,986.146057 1739.385986,997.853577 1723.976929,1009.614319 
	C1699.764648,1028.093994 1673.682495,1042.911499 1644.726318,1052.700073 
	C1612.987305,1063.429199 1580.407471,1070.088257 1547.046387,1071.706543 
	C1529.213867,1072.571533 1511.101807,1071.731812 1493.373779,1069.557739 
	C1475.547119,1067.371460 1457.897217,1063.146240 1440.432983,1058.766235 
	C1422.154419,1054.182007 1404.188599,1048.350342 1386.086182,1043.063843 
M1676.885010,953.139709 
	C1678.983398,953.383301 1681.081299,953.782288 1683.180542,953.789917 
	C1683.960571,953.792786 1684.832520,952.965942 1685.464844,952.322937 
	C1685.628540,952.156433 1685.191772,951.096619 1684.780762,950.719727 
	C1682.838745,948.938904 1673.257446,950.136414 1670.529175,953.380066 
	C1672.977783,953.380066 1674.546265,953.380066 1676.885010,953.139709 
M1670.963135,998.540405 
	C1668.812378,997.385437 1666.714233,996.109192 1664.482666,995.140381 
	C1663.687988,994.795410 1662.569458,995.196350 1661.598755,995.256775 
	C1661.873169,996.108643 1661.890015,997.398010 1662.466187,997.737427 
	C1665.132446,999.307739 1667.883179,1000.796021 1670.757935,1001.918823 
	C1671.793457,1002.323242 1673.260620,1001.622192 1674.530884,1001.425659 
	C1673.570190,1000.557373 1672.609375,999.689026 1670.963135,998.540405 
M1653.778198,986.402588 
	C1654.713501,987.110291 1655.648682,987.817932 1656.583862,988.525574 
	C1656.929077,988.003357 1657.664307,987.379517 1657.559082,986.974548 
	C1656.515381,982.965454 1655.332520,978.992615 1653.884155,973.947388 
	C1650.710327,978.716492 1652.439209,982.216858 1653.778198,986.402588 
M1702.026489,988.279419 
	C1704.575073,984.147095 1706.072998,979.916504 1703.421631,975.241089 
	C1701.634888,979.104553 1700.440430,983.063171 1699.463379,987.074768 
	C1699.379028,987.420776 1700.733398,988.117188 1702.026489,988.279419 
M1656.296875,966.801392 
	C1658.949463,963.258972 1663.458374,960.858337 1662.999756,955.302612 
	C1659.743408,958.066406 1657.188232,961.342651 1654.804443,964.739014 
	C1654.555176,965.094177 1655.319092,966.160583 1656.296875,966.801392 
M1700.042358,960.649353 
	C1698.400146,959.025574 1696.822998,957.325195 1695.067749,955.834595 
	C1694.656616,955.485535 1693.378784,955.573853 1692.981567,955.958496 
	C1692.594971,956.332886 1692.494263,957.627808 1692.838867,958.032410 
	C1695.430298,961.074280 1698.162598,963.996094 1700.850830,966.955383 
	C1701.266846,966.746826 1701.682861,966.538269 1702.098877,966.329712 
	C1701.563721,964.628967 1701.028564,962.928223 1700.042358,960.649353 
M1694.265503,994.354431 
	C1690.457886,996.300293 1686.650269,998.246155 1682.415894,1000.410217 
	C1686.997681,1002.603699 1694.468262,999.664673 1695.596436,995.844666 
	C1695.685669,995.542542 1695.127075,995.049133 1694.265503,994.354431 
z"/>
<path fill="#BAFFC9" opacity="1.000000" stroke="none" 
	d="
M1774.378052,92.619064 
	C1788.997681,103.892525 1794.529785,122.614540 1789.237793,140.670380 
	C1784.739136,156.019287 1775.934448,167.034637 1760.427124,172.464600 
	C1756.966187,173.676437 1754.113525,174.629135 1750.248169,174.159134 
	C1722.656982,170.804138 1697.358398,162.242661 1675.621094,144.184723 
	C1659.573364,130.853363 1647.359497,114.501503 1636.710938,96.874092 
	C1630.784912,87.064598 1636.149536,75.438225 1648.771973,71.122147 
	C1655.262085,68.902969 1662.261475,67.602142 1669.116577,67.128242 
	C1690.117798,65.676414 1710.919067,67.924637 1731.233276,73.233459 
	C1746.488281,77.220161 1761.575317,82.067268 1774.378052,92.619064 
z"/>
<path fill="#FFB3BA" opacity="1.000000" stroke="none" 
	d="
M392.148132,53.096176 
	C397.481659,49.270267 402.685760,45.136673 408.536011,42.368740 
	C420.920563,36.509224 434.068848,33.706600 447.872955,32.807236 
	C472.378906,31.210613 493.725800,39.182396 513.770569,52.202858 
	C530.606140,63.138737 547.418640,74.113815 564.406860,84.808708 
	C569.153198,87.796753 574.486023,89.853081 579.766357,92.591934 
	C573.750916,94.210709 567.579651,96.201622 561.274719,96.811813 
	C546.633362,98.228828 531.935608,99.125450 517.244202,99.932274 
	C510.868744,100.282410 504.179199,101.050240 498.106903,99.617203 
	C480.854889,95.545792 463.603729,91.164871 446.812469,85.533432 
	C430.249664,79.978600 415.622955,70.337936 401.560547,60.002983 
	C398.509613,57.760757 395.396118,55.603607 392.148132,53.096176 
z"/>
<path fill="#FFFFBA" opacity="1.000000" stroke="none" 
	d="
M1003.964233,891.094421 
	C1008.555481,896.458313 1013.882874,901.362000 1017.583923,907.282349 
	C1025.149170,919.384094 1027.459717,932.553955 1019.615906,945.381897 
	C1011.476013,958.694153 998.278137,964.256836 983.387939,962.737976 
	C956.468994,959.992126 943.408020,931.918823 951.279114,912.943420 
	C956.828369,899.565308 964.534668,888.972229 979.089844,885.792603 
	C984.438843,884.624023 990.450073,886.486633 996.757263,887.285583 
	C998.556641,888.087952 999.757996,888.571350 1000.959351,889.054810 
	C1000.959351,889.054810 1001.003723,889.022339 1001.126343,889.316895 
	C1002.153992,890.105774 1003.059143,890.600098 1003.964233,891.094421 
z"/>
<path fill="#FFE0BC" opacity="1.000000" stroke="none" 
	d="
M373.109802,993.784424 
	C372.746735,991.779236 372.383698,989.774048 371.987854,987.085571 
	C371.651062,985.927612 371.347107,985.452881 371.043182,984.978149 
	C370.806854,972.683533 370.771545,960.578979 375.826141,948.804871 
	C385.849304,925.457214 407.401276,916.138672 430.961426,925.132874 
	C456.486694,934.877197 467.583679,959.013550 459.803345,985.400085 
	C459.327942,987.012390 459.337585,988.996765 459.793060,990.619507 
	C464.927429,1008.912170 455.598480,1021.260254 438.005585,1023.869446 
	C432.477783,1024.689331 427.253723,1022.906433 422.690643,1019.290955 
	C421.182648,1018.096191 418.827332,1017.047607 417.034149,1017.280029 
	C400.828430,1019.380432 387.777374,1014.004578 377.271484,1000.820190 
	C375.669861,998.116272 374.389832,995.950378 373.109802,993.784424 
M375.020111,958.720703 
	C374.347900,964.802002 372.930084,970.908203 373.132538,976.960205 
	C374.009216,1003.169250 392.391449,1018.443359 418.574585,1014.423950 
	C413.865173,1001.550232 414.918030,989.216003 425.872833,980.384583 
	C436.984009,971.427124 447.629944,976.708679 457.246124,985.186890 
	C457.805908,983.767639 458.231873,982.896118 458.499573,981.978394 
	C465.360168,958.456909 451.158112,932.725708 427.652740,926.076050 
	C411.522522,921.512878 397.001526,924.087402 386.235199,937.532959 
	C381.478333,943.473328 378.790558,951.070496 375.020111,958.720703 
z"/>
<path fill="#D8F6FF" opacity="1.000000" stroke="none" 
	d="
M1385.623291,1043.043213 
	C1404.188599,1048.350342 1422.154419,1054.182007 1440.432983,1058.766235 
	C1457.897217,1063.146240 1475.547119,1067.371460 1493.373779,1069.557739 
	C1511.101807,1071.731812 1529.213867,1072.571533 1547.046387,1071.706543 
	C1580.407471,1070.088257 1612.987305,1063.429199 1644.726318,1052.700073 
	C1673.682495,1042.911499 1699.764648,1028.093994 1723.976929,1009.614319 
	C1739.385986,997.853577 1754.870483,986.146057 1770.865234,975.210388 
	C1788.343628,963.260315 1808.165894,956.547363 1828.749023,952.020264 
	C1830.359131,951.666138 1831.917358,951.075806 1833.725464,950.312256 
	C1835.185547,950.846130 1836.419678,951.662903 1837.826904,952.743408 
	C1828.294678,955.637634 1818.465942,957.886414 1808.908813,960.975464 
	C1786.670898,968.163147 1767.082031,980.169678 1748.804932,994.594666 
	C1724.950439,1013.421692 1700.979980,1032.099365 1673.124146,1044.976929 
	C1649.937378,1055.696045 1625.605469,1062.637451 1600.725098,1068.030151 
	C1571.990601,1074.258179 1542.901489,1076.271118 1513.655273,1074.845459 
	C1490.482544,1073.715698 1467.629761,1069.712646 1445.211060,1063.570068 
	C1422.667358,1057.393433 1400.142944,1051.146851 1377.620605,1044.892700 
	C1377.067017,1044.739014 1376.637695,1044.137695 1376.067871,1043.383911 
	C1379.043701,1043.022583 1382.102051,1043.022583 1385.623291,1043.043213 
z"/>
<path fill="#BBE1FF" opacity="1.000000" stroke="none" 
	d="
M113.949463,310.589172 
	C119.858696,308.865601 125.332657,308.674835 130.635544,311.376678 
	C138.373001,315.318939 139.863724,322.128845 138.973816,329.903503 
	C138.165924,336.961823 134.184402,342.039429 127.709877,344.404938 
	C123.319794,346.008881 118.426186,346.590302 113.713882,346.858887 
	C108.780655,347.140045 104.996597,344.098145 103.235229,339.820251 
	C99.377518,330.450989 103.351608,314.206848 113.949463,310.589172 
z"/>
<path fill="#BBE1FF" opacity="1.000000" stroke="none" 
	d="
M962.997681,1025.394653 
	C965.535095,1039.517334 950.072876,1046.971924 939.460510,1044.728394 
	C936.590576,1044.121582 933.507385,1041.657715 931.753662,1039.175903 
	C926.562195,1031.828735 927.927551,1022.317749 934.405823,1016.132141 
	C939.986145,1010.803833 950.590576,1009.943665 956.870239,1015.194519 
	C959.673767,1017.538757 960.998840,1021.651062 962.997681,1025.394653 
z"/>
<path fill="#FFE1BE" opacity="1.000000" stroke="none" 
	d="
M1697.915527,844.029175 
	C1713.080444,837.357666 1725.947510,828.092957 1736.551758,815.888184 
	C1747.860962,802.871887 1755.287964,787.959961 1758.095581,770.754944 
	C1761.098755,752.350769 1756.965698,735.681641 1745.872803,721.030762 
	C1735.850708,707.794373 1722.534546,698.547546 1706.881348,692.882507 
	C1701.752319,691.026245 1696.449707,689.652405 1691.246460,687.995422 
	C1690.187378,687.658142 1689.217529,687.040283 1688.206665,686.551697 
	C1688.365234,685.961365 1688.523804,685.371033 1688.682373,684.780762 
	C1692.275757,685.308044 1696.019775,685.359558 1699.437134,686.442383 
	C1717.312134,692.105957 1733.465820,700.751343 1745.746826,715.328613 
	C1755.508667,726.915527 1761.422729,740.125549 1762.061279,755.578430 
	C1763.077393,780.173218 1754.029785,800.848145 1738.360229,819.189087 
	C1725.016724,834.807129 1708.200073,844.888794 1688.763062,850.923462 
	C1687.987793,851.164185 1687.167480,851.297974 1686.358276,851.367615 
	C1686.105713,851.389343 1685.820923,851.035278 1684.905762,850.418213 
	C1688.150269,846.088135 1693.595215,846.459229 1697.915527,844.029175 
z"/>
<path fill="#BAFFC9" opacity="1.000000" stroke="none" 
	d="
M494.869965,982.341736 
	C489.107269,978.284241 487.762604,966.862000 493.073700,964.138245 
	C496.236145,962.516479 501.112335,963.276428 504.936798,964.169678 
	C508.932800,965.102905 511.850037,968.139771 511.970673,972.751770 
	C512.089905,977.308960 509.380402,980.572266 505.580139,981.915283 
	C502.447174,983.022400 498.697601,982.384705 494.869965,982.341736 
z"/>
<path fill="#FFE1BE" opacity="1.000000" stroke="none" 
	d="
M356.983429,194.638672 
	C356.222534,195.375412 355.119629,196.235901 354.757385,195.992798 
	C351.629333,193.893326 351.050446,186.656342 354.244659,182.394058 
	C355.258179,186.779510 356.121490,190.515137 356.983429,194.638672 
z"/>
<path fill="#FFE1BE" opacity="1.000000" stroke="none" 
	d="
M364.814148,203.360718 
	C368.017792,205.175644 370.961548,206.753601 374.267395,208.525665 
	C369.935669,210.581146 363.050812,208.395630 361.638885,204.924072 
	C361.405304,204.349777 361.707001,202.950104 361.962433,202.896851 
	C362.775330,202.727448 363.683136,203.013611 364.814148,203.360718 
z"/>
<path fill="#FFE1BE" opacity="1.000000" stroke="none" 
	d="
M374.566528,158.035904 
	C378.470825,158.206482 381.953400,158.391006 385.435974,158.575546 
	C385.515350,159.225449 385.594696,159.875351 385.674072,160.525253 
	C384.199768,160.894470 382.741150,161.469269 381.247406,161.583084 
	C379.182648,161.740417 377.084839,161.635910 375.014191,161.475677 
	C373.856903,161.386108 372.725861,160.957123 371.583008,160.681091 
	C372.436951,159.804016 373.290894,158.926941 374.566528,158.035904 
z"/>
<path fill="#FFE1BE" opacity="1.000000" stroke="none" 
	d="
M404.142639,190.047607 
	C402.856110,192.477127 401.647339,194.504501 400.438599,196.531860 
	C400.598724,194.303421 400.597656,192.048141 400.963196,189.853912 
	C401.348419,187.541504 402.083740,185.287415 402.666077,183.007828 
	C403.338501,183.089050 404.010925,183.170273 404.683350,183.251495 
	C404.529053,185.382812 404.374756,187.514145 404.142639,190.047607 
z"/>
<path fill="#FFE1BE" opacity="1.000000" stroke="none" 
	d="
M385.490082,210.281830 
	C384.290680,210.233902 383.355988,210.175735 382.618652,209.764023 
	C382.432312,209.659973 382.667145,207.963791 383.062927,207.785309 
	C386.805878,206.097351 390.625519,204.579498 394.736389,203.621948 
	C392.932098,207.522110 389.470886,208.955246 385.490082,210.281830 
z"/>
<path fill="#FFE1BE" opacity="1.000000" stroke="none" 
	d="
M354.189636,173.858200 
	C355.731049,168.930908 358.701477,165.765228 363.909271,164.789413 
	C361.571381,168.010010 359.293579,171.278458 356.817352,174.388931 
	C356.517670,174.765396 355.146851,174.289124 354.189636,173.858200 
z"/>
<path fill="#FFE1BE" opacity="1.000000" stroke="none" 
	d="
M398.345947,172.717178 
	C396.354797,169.628052 394.549500,166.862640 392.744202,164.097229 
	C393.333405,163.670654 393.922607,163.244095 394.511810,162.817535 
	C396.903259,165.749863 399.396027,168.609497 401.597900,171.677856 
	C402.021973,172.268799 401.305420,173.678238 401.115051,174.710098 
	C400.253967,174.153702 399.392914,173.597290 398.345947,172.717178 
z"/>
<path fill="#FFFFFE" opacity="1.000000" stroke="none" 
	d="
M38.282814,693.967651 
	C41.726086,690.048462 45.549381,686.140015 49.666168,682.069946 
	C49.025169,688.581360 44.680565,692.062805 38.282814,693.967651 
z"/>
<path fill="#FFFFFE" opacity="1.000000" stroke="none" 
	d="
M68.308609,655.952209 
	C69.104813,653.448914 70.259148,650.915588 71.685577,648.180054 
	C73.551346,651.740540 71.505966,653.995728 68.308609,655.952209 
z"/>
<path fill="#FFFFFE" opacity="1.000000" stroke="none" 
	d="
M826.983398,1074.663818 
	C825.047974,1073.253784 823.120239,1071.444946 821.025757,1069.348267 
	C824.688782,1068.691040 827.137695,1069.948853 826.983398,1074.663818 
z"/>
<path fill="#FFFFFF" opacity="1.000000" stroke="none" 
	d="
M373.073822,994.193909 
	C374.389832,995.950378 375.669861,998.116272 376.999542,1000.632507 
	C373.333435,1000.351990 373.154602,997.497192 373.073822,994.193909 
z"/>
<path fill="#FFFFFE" opacity="1.000000" stroke="none" 
	d="
M1000.938843,888.702576 
	C999.757996,888.571350 998.556641,888.087952 997.150635,887.352600 
	C999.036194,885.081970 1000.118469,886.267273 1000.938843,888.702576 
z"/>
<path fill="#FFFFFE" opacity="1.000000" stroke="none" 
	d="
M1003.928223,890.736450 
	C1003.059143,890.600098 1002.153992,890.105774 1001.102905,889.326050 
	C1001.935303,889.486572 1002.913757,889.932556 1003.928223,890.736450 
z"/>
<path fill="#FFFFFE" opacity="1.000000" stroke="none" 
	d="
M32.143517,699.166748 
	C32.456379,698.349976 32.960308,697.783508 33.728909,697.099915 
	C33.440582,697.794189 32.887581,698.605652 32.143517,699.166748 
z"/>
<path fill="#FFFFFE" opacity="1.000000" stroke="none" 
	d="
M60.303627,668.937805 
	C60.438869,668.073486 60.926872,667.163940 61.698540,666.104797 
	C61.540264,666.934326 61.098324,667.913452 60.303627,668.937805 
z"/>
<path fill="#FFFFFF" opacity="1.000000" stroke="none" 
	d="
M370.808289,985.145203 
	C371.347107,985.452881 371.651062,985.927612 371.956970,986.700439 
	C371.497101,986.436462 371.035217,985.874390 370.808289,985.145203 
z"/>
<path fill="#FFFFFE" opacity="1.000000" stroke="none" 
	d="
M54.118576,677.165649 
	C54.066971,676.626587 54.246742,676.374207 54.709503,676.065063 
	C55.112576,676.446472 55.308952,676.938965 55.505329,677.431519 
	C55.094772,677.420288 54.684212,677.409119 54.118576,677.165649 
z"/>
<path fill="#FFFFFE" opacity="1.000000" stroke="none" 
	d="
M1789.999268,441.972961 
	C1780.790649,426.307251 1770.971558,410.449860 1762.591919,393.865173 
	C1753.777222,376.419342 1748.056030,357.598633 1746.256836,338.147644 
	C1743.847534,312.104248 1753.017944,290.551544 1774.748291,274.927826 
	C1791.694458,262.743927 1810.940796,255.288162 1829.993042,247.373322 
	C1842.124390,242.333588 1854.176392,237.102905 1866.624023,231.886902 
	C1863.759033,249.922928 1856.658569,266.518158 1846.634155,281.791168 
	C1836.887817,296.640503 1826.317871,310.949646 1816.589233,325.810059 
	C1803.745239,345.429108 1795.810425,367.114594 1793.157837,390.342651 
	C1791.223389,407.280731 1791.005127,424.414795 1789.999268,441.972961 
z"/>
<path fill="#FFFFFF" opacity="1.000000" stroke="none" 
	d="
M1676.500000,953.259888 
	C1674.546265,953.380066 1672.977783,953.380066 1670.529175,953.380066 
	C1673.257446,950.136414 1682.838745,948.938904 1684.780762,950.719727 
	C1685.191772,951.096619 1685.628540,952.156433 1685.464844,952.322937 
	C1684.832520,952.965942 1683.960571,953.792786 1683.180542,953.789917 
	C1681.081299,953.782288 1678.983398,953.383301 1676.500000,953.259888 
z"/>
<path fill="#FFFFFF" opacity="1.000000" stroke="none" 
	d="
M1671.305908,998.680542 
	C1672.609375,999.689026 1673.570190,1000.557373 1674.530884,1001.425659 
	C1673.260620,1001.622192 1671.793457,1002.323242 1670.757935,1001.918823 
	C1667.883179,1000.796021 1665.132446,999.307739 1662.466187,997.737427 
	C1661.890015,997.398010 1661.873169,996.108643 1661.598755,995.256836 
	C1662.569458,995.196350 1663.687988,994.795410 1664.482666,995.140381 
	C1666.714233,996.109192 1668.812378,997.385437 1671.305908,998.680542 
z"/>
<path fill="#FFFFFF" opacity="1.000000" stroke="none" 
	d="
M1653.611084,986.058350 
	C1652.439209,982.216858 1650.710327,978.716492 1653.884155,973.947388 
	C1655.332520,978.992615 1656.515381,982.965454 1657.559082,986.974548 
	C1657.664307,987.379517 1656.929077,988.003357 1656.583984,988.525635 
	C1655.648682,987.817932 1654.713501,987.110291 1653.611084,986.058350 
z"/>
<path fill="#FFFFFF" opacity="1.000000" stroke="none" 
	d="
M1701.722900,988.465088 
	C1700.733398,988.117188 1699.379028,987.420776 1699.463379,987.074768 
	C1700.440430,983.063171 1701.634888,979.104553 1703.421631,975.241089 
	C1706.072998,979.916504 1704.575073,984.147095 1701.722900,988.465088 
z"/>
<path fill="#FFFFFF" opacity="1.000000" stroke="none" 
	d="
M1655.954956,966.849182 
	C1655.319092,966.160583 1654.555176,965.094177 1654.804443,964.739014 
	C1657.188232,961.342651 1659.743408,958.066406 1662.999756,955.302612 
	C1663.458374,960.858337 1658.949463,963.258972 1655.954956,966.849182 
z"/>
<path fill="#FFFFFF" opacity="1.000000" stroke="none" 
	d="
M1700.267822,960.938354 
	C1701.028564,962.928223 1701.563721,964.628967 1702.098877,966.329712 
	C1701.682861,966.538269 1701.266846,966.746826 1700.850830,966.955383 
	C1698.162598,963.996094 1695.430298,961.074280 1692.838867,958.032410 
	C1692.494263,957.627808 1692.594971,956.332886 1692.981567,955.958496 
	C1693.378784,955.573853 1694.656616,955.485535 1695.067749,955.834595 
	C1696.822998,957.325195 1698.400146,959.025574 1700.267822,960.938354 
z"/>
<path fill="#FFFFFF" opacity="1.000000" stroke="none" 
	d="
M1694.567627,994.499512 
	C1695.127075,995.049133 1695.685669,995.542542 1695.596436,995.844666 
	C1694.468262,999.664673 1686.997681,1002.603699 1682.415894,1000.410217 
	C1686.650269,998.246155 1690.457886,996.300293 1694.567627,994.499512 
z"/>
<path fill="#FFFFFF" opacity="1.000000" stroke="none" 
	d="
M375.091797,958.318115 
	C378.790558,951.070496 381.478333,943.473328 386.235199,937.532959 
	C397.001526,924.087402 411.522522,921.512878 427.652740,926.076050 
	C451.158112,932.725708 465.360168,958.456909 458.499573,981.978394 
	C458.231873,982.896118 457.805908,983.767639 457.246124,985.186890 
	C447.629944,976.708679 436.984009,971.427124 425.872833,980.384583 
	C414.918030,989.216003 413.865173,1001.550232 418.574585,1014.423950 
	C392.391449,1018.443359 374.009216,1003.169250 373.132538,976.960205 
	C372.930084,970.908203 374.347900,964.802002 375.091797,958.318115 
z"/>
</svg>