<svg width="659" height="659" viewBox="0 0 659 659" fill="none" xmlns="http://www.w3.org/2000/svg">
<rect width="659" height="659" rx="329.5" fill="#265EA7"/>
<rect x="383.723" y="152" width="42" height="415" rx="21" transform="rotate(21 383.723 152)" fill="black" fill-opacity="0.3"/>
<rect x="384.723" y="129" width="42" height="415" rx="21" transform="rotate(21 384.723 129)" fill="white"/>
<path d="M568.218 329.09C566.546 325.888 564.024 323.076 560.739 321.023L452.189 253.194C442.353 247.048 429.398 250.039 423.252 259.875C417.106 269.71 420.097 282.666 429.933 288.812L533.716 353.663L429.187 416.471C419.246 422.444 416.029 435.345 422.003 445.287C427.976 455.228 440.878 458.445 450.819 452.472L560.536 386.547C564.17 384.363 566.905 381.255 568.622 377.703C572.792 370.684 575.187 362.487 575.187 353.73C575.187 344.694 572.637 336.254 568.218 329.09Z" fill="black" fill-opacity="0.3"/>
<path d="M564.031 305.36C562.359 302.158 559.837 299.346 556.552 297.294L448.002 229.464C438.167 223.318 425.211 226.309 419.065 236.145C412.919 245.98 415.91 258.936 425.746 265.082L529.529 329.933L425.001 392.741C415.059 398.714 411.842 411.616 417.816 421.557C423.789 431.498 436.691 434.715 446.632 428.742L556.35 362.817C559.983 360.634 562.718 357.525 564.435 353.973C568.605 346.954 571 338.757 571 330C571 320.964 568.45 312.524 564.031 305.36Z" fill="white"/>
<path d="M93.9687 376.384C95.6413 379.586 98.1628 382.398 101.448 384.451L209.998 452.28C219.833 458.426 232.789 455.435 238.935 445.6C245.081 435.764 242.09 422.808 232.254 416.662L128.471 351.811L233 289.004C242.941 283.03 246.158 270.129 240.184 260.187C234.211 250.246 221.309 247.029 211.368 253.003L101.651 318.928C98.017 321.111 95.2817 324.22 93.5652 327.771C89.3948 334.79 87 342.988 87 351.744C87 360.78 89.5496 369.22 93.9687 376.384Z" fill="black" fill-opacity="0.3"/>
<path d="M93.9687 353.384C95.6413 356.586 98.1628 359.398 101.448 361.451L209.998 429.28C219.833 435.426 232.789 432.435 238.935 422.6C245.081 412.764 242.09 399.808 232.254 393.662L128.471 328.811L233 266.004C242.941 260.03 246.158 247.129 240.184 237.187C234.211 227.246 221.309 224.029 211.368 230.003L101.651 295.928C98.017 298.111 95.2817 301.22 93.5652 304.771C89.3948 311.79 87 319.988 87 328.744C87 337.78 89.5496 346.22 93.9687 353.384Z" fill="white"/>
</svg>
