<svg width="24" height="24" viewBox="0 0 24 19" fill="none" xmlns="http://www.w3.org/2000/svg">
<g clip-path="url(#clip0_61_8)">
<path d="M21.6 0H2.4C1.08 0 0.012 1.06875 0.012 2.375L0 16.625C0 17.9313 1.08 19 2.4 19H21.6C22.92 19 24 17.9313 24 16.625V2.375C24 1.06875 22.92 0 21.6 0ZM20.4 16.625H3.6C2.94 16.625 2.4 16.0906 2.4 15.4375V4.75L10.728 9.90375C11.508 10.3906 12.492 10.3906 13.272 9.90375L21.6 4.75V15.4375C21.6 16.0906 21.06 16.625 20.4 16.625ZM12 8.3125L2.4 2.375H21.6L12 8.3125Z" fill="#1A1C1E"/>
</g>
<defs>
<clipPath id="clip0_61_8">
<rect width="24" height="19" fill="white"/>
</clipPath>
</defs>
</svg>
