<svg viewBox="0 0 32 32" fill="none" xmlns="http://www.w3.org/2000/svg">
<path fill-rule="evenodd" clip-rule="evenodd" d="M16.451 24.6621L10.8 28.9001C10.3543 29.2344 9.82431 29.438 9.26943 29.488C8.71454 29.538 8.15669 29.4326 7.65837 29.1834C7.16005 28.9343 6.74096 28.5513 6.44806 28.0773C6.15516 27.6034 6.00001 27.0573 6.00001 26.5001V3.00013C6.00001 2.20413 5.99983 0.500122 6.00091 0.000103322C6.45112 0.000174043 6.95112 0.000174043 7.4509 9.00598e-05C7.805 -6.34508e-05 8.60605 -1.47891e-06 9.00001 0.00013226H23.902C24.6977 0.00013226 26.4509 0.00012207 26.9009 0.000131634C26.9009 0.500122 26.902 2.20448 26.902 3.00013V26.5001C26.902 27.0573 26.7469 27.6034 26.454 28.0773C26.1611 28.5513 25.742 28.9343 25.2437 29.1834C24.7453 29.4326 24.1875 29.538 23.6326 29.488C23.0777 29.438 22.5477 29.2344 22.102 28.9001L16.451 24.6621Z" fill="url(#paint0_linear_59_55)"/>
<path fill-rule="evenodd" clip-rule="evenodd" d="M14.0449 7.56811L15.5929 4.98611C15.6817 4.8378 15.8074 4.71504 15.9578 4.6298C16.1081 4.54456 16.278 4.49976 16.4509 4.49976C16.6237 4.49976 16.7936 4.54456 16.944 4.6298C17.0944 4.71504 17.2201 4.8378 17.3089 4.98611L18.8569 7.56811L21.7919 8.24311C21.9598 8.28235 22.1148 8.36428 22.2418 8.48096C22.3688 8.59765 22.4635 8.74513 22.5168 8.90915C22.5701 9.07317 22.5802 9.24817 22.546 9.41722C22.5119 9.58627 22.4347 9.74364 22.3219 9.87411L20.3439 12.1451L20.6089 15.1441C20.6399 15.4941 20.4849 15.8351 20.2009 16.0421C20.0611 16.1434 19.8975 16.2068 19.726 16.2262C19.5545 16.2457 19.3808 16.2205 19.2219 16.1531L16.4509 14.9731L13.6799 16.1531C13.521 16.2205 13.3473 16.2457 13.1758 16.2262C13.0043 16.2068 12.8407 16.1434 12.7009 16.0421C12.5612 15.9403 12.4502 15.8041 12.3787 15.6468C12.3073 15.4894 12.2777 15.3163 12.2929 15.1441L12.5579 12.1451L10.5799 9.87411C10.4665 9.74385 10.3888 9.58645 10.3544 9.41725C10.3199 9.24805 10.3298 9.0728 10.3832 8.90857C10.4365 8.74435 10.5315 8.59674 10.6589 8.48012C10.7862 8.3635 10.9416 8.28184 11.1099 8.24311L14.0449 7.56811Z" fill="url(#paint1_linear_59_55)"/>
<defs>
<linearGradient id="paint0_linear_59_55" x1="15.375" y1="-5.23988" x2="15.375" y2="49.0695" gradientUnits="userSpaceOnUse">
<stop stop-color="#3EC5D8"/>
<stop offset="1" stop-color="#0791A4"/>
</linearGradient>
<linearGradient id="paint1_linear_59_55" x1="16.8198" y1="6.33496" x2="17.0247" y2="24.2515" gradientUnits="userSpaceOnUse">
<stop stop-color="#FAA923"/>
<stop offset="1" stop-color="#FED190"/>
</linearGradient>
</defs>
</svg>
